<mxfile host="app.diagrams.net" modified="2020-12-27T20:56:06.611Z" agent="5.0 (Windows)" etag="FE7o-RQvHV-sBwUbEZu6" version="14.1.2" type="github">
  <diagram name="Page-1" id="b5b7bab2-c9e2-2cf4-8b2a-24fd1a2a6d21">
    <mxGraphModel dx="1422" dy="763" grid="1" gridSize="10" guides="1" tooltips="1" connect="1" arrows="1" fold="1" page="1" pageScale="1" pageWidth="827" pageHeight="1169" background="#ffffff" math="0" shadow="0">
      <root>
        <mxCell id="0" />
        <mxCell id="1" parent="0" />
        <mxCell id="fH06l1myDt46P4Em8P1J-28" value="" style="rounded=0;whiteSpace=wrap;html=1;fillColor=none;strokeColor=#CC0000;" vertex="1" parent="1">
          <mxGeometry x="137.5" y="80" width="532" height="650" as="geometry" />
        </mxCell>
        <mxCell id="fH06l1myDt46P4Em8P1J-1" style="rounded=0;html=1;dashed=1;labelBackgroundColor=none;startFill=0;endArrow=open;endFill=0;endSize=10;fontFamily=Verdana;fontSize=10;edgeStyle=elbowEdgeStyle;exitX=0.5;exitY=1;exitDx=0;exitDy=0;exitPerimeter=0;" edge="1" parent="1" source="fH06l1myDt46P4Em8P1J-8" target="fH06l1myDt46P4Em8P1J-7">
          <mxGeometry relative="1" as="geometry">
            <mxPoint x="120" y="109" as="sourcePoint" />
            <mxPoint x="270" y="109" as="targetPoint" />
            <Array as="points">
              <mxPoint x="114" y="80" />
              <mxPoint x="130" y="70" />
              <mxPoint x="190" y="80" />
            </Array>
          </mxGeometry>
        </mxCell>
        <mxCell id="fH06l1myDt46P4Em8P1J-8" value="" style="verticalLabelPosition=bottom;html=1;verticalAlign=top;align=center;strokeColor=none;fillColor=#00BEF2;shape=mxgraph.azure.user;" vertex="1" parent="1">
          <mxGeometry x="90" y="10" width="47.5" height="50" as="geometry" />
        </mxCell>
        <mxCell id="fH06l1myDt46P4Em8P1J-10" value="" style="verticalLabelPosition=bottom;html=1;verticalAlign=top;align=center;strokeColor=none;fillColor=#00BEF2;shape=mxgraph.azure.user;" vertex="1" parent="1">
          <mxGeometry x="230" y="10" width="47.5" height="50" as="geometry" />
        </mxCell>
        <mxCell id="fH06l1myDt46P4Em8P1J-11" value="" style="verticalLabelPosition=bottom;html=1;verticalAlign=top;align=center;strokeColor=none;fillColor=#00BEF2;shape=mxgraph.azure.user;" vertex="1" parent="1">
          <mxGeometry x="450" y="10" width="47.5" height="50" as="geometry" />
        </mxCell>
        <mxCell id="fH06l1myDt46P4Em8P1J-12" value="" style="verticalLabelPosition=bottom;html=1;verticalAlign=top;align=center;strokeColor=none;fillColor=#00BEF2;shape=mxgraph.azure.user;" vertex="1" parent="1">
          <mxGeometry x="630" y="10" width="47.5" height="50" as="geometry" />
        </mxCell>
        <mxCell id="fH06l1myDt46P4Em8P1J-13" value="" style="verticalLabelPosition=bottom;html=1;verticalAlign=top;align=center;strokeColor=none;fillColor=#00BEF2;shape=mxgraph.azure.user;" vertex="1" parent="1">
          <mxGeometry x="540" y="10" width="47.5" height="50" as="geometry" />
        </mxCell>
        <mxCell id="fH06l1myDt46P4Em8P1J-16" value="" style="endArrow=none;dashed=1;html=1;" edge="1" parent="1">
          <mxGeometry width="50" height="50" relative="1" as="geometry">
            <mxPoint x="253.68" y="110" as="sourcePoint" />
            <mxPoint x="253.68" y="60" as="targetPoint" />
          </mxGeometry>
        </mxCell>
        <mxCell id="fH06l1myDt46P4Em8P1J-19" style="rounded=0;html=1;dashed=1;labelBackgroundColor=none;startFill=0;endArrow=open;endFill=0;endSize=10;fontFamily=Verdana;fontSize=10;edgeStyle=elbowEdgeStyle;exitX=0.5;exitY=1;exitDx=0;exitDy=0;exitPerimeter=0;entryX=1.015;entryY=0.538;entryDx=0;entryDy=0;entryPerimeter=0;" edge="1" parent="1" source="fH06l1myDt46P4Em8P1J-12" target="fH06l1myDt46P4Em8P1J-7">
          <mxGeometry relative="1" as="geometry">
            <mxPoint x="520" y="70" as="sourcePoint" />
            <mxPoint x="726.25" y="125" as="targetPoint" />
            <Array as="points">
              <mxPoint x="654" y="100" />
              <mxPoint x="536.25" y="80" />
              <mxPoint x="596.25" y="90" />
            </Array>
          </mxGeometry>
        </mxCell>
        <mxCell id="fH06l1myDt46P4Em8P1J-20" value="" style="endArrow=none;dashed=1;html=1;" edge="1" parent="1">
          <mxGeometry width="50" height="50" relative="1" as="geometry">
            <mxPoint x="473.25000000000006" y="110" as="sourcePoint" />
            <mxPoint x="473.25000000000006" y="60" as="targetPoint" />
          </mxGeometry>
        </mxCell>
        <mxCell id="fH06l1myDt46P4Em8P1J-21" value="" style="endArrow=none;dashed=1;html=1;" edge="1" parent="1">
          <mxGeometry width="50" height="50" relative="1" as="geometry">
            <mxPoint x="563.25" y="110" as="sourcePoint" />
            <mxPoint x="563.25" y="60" as="targetPoint" />
          </mxGeometry>
        </mxCell>
        <mxCell id="fH06l1myDt46P4Em8P1J-27" value="&lt;font color=&quot;#CC0000&quot;&gt;Hosted on Netlify&lt;/font&gt;" style="text;html=1;fillColor=none;align=center;verticalAlign=middle;whiteSpace=wrap;rounded=0;" vertex="1" parent="1">
          <mxGeometry x="150" y="130" width="140" height="20" as="geometry" />
        </mxCell>
        <mxCell id="fH06l1myDt46P4Em8P1J-7" value="" style="aspect=fixed;html=1;points=[];align=center;image;fontSize=12;image=img/lib/azure2/general/Browser.svg;" vertex="1" parent="1">
          <mxGeometry x="366.25" y="89" width="65" height="52" as="geometry" />
        </mxCell>
        <mxCell id="fH06l1myDt46P4Em8P1J-55" value="" style="group" vertex="1" connectable="0" parent="1">
          <mxGeometry x="431.25" y="210" width="331.75" height="63.40999999999997" as="geometry" />
        </mxCell>
        <mxCell id="fH06l1myDt46P4Em8P1J-36" value="" style="group" vertex="1" connectable="0" parent="fH06l1myDt46P4Em8P1J-55">
          <mxGeometry width="331.75" height="63.40999999999997" as="geometry" />
        </mxCell>
        <mxCell id="fH06l1myDt46P4Em8P1J-35" value="" style="group" vertex="1" connectable="0" parent="fH06l1myDt46P4Em8P1J-36">
          <mxGeometry width="331.75" height="63.40999999999997" as="geometry" />
        </mxCell>
        <mxCell id="fH06l1myDt46P4Em8P1J-6" value="" style="html=1;dashed=0;whitespace=wrap;fillColor=#2875E2;strokeColor=#ffffff;points=[[0.005,0.63,0],[0.1,0.2,0],[0.9,0.2,0],[0.5,0,0],[0.995,0.63,0],[0.72,0.99,0],[0.5,1,0],[0.28,0.99,0]];shape=mxgraph.kubernetes.icon;prIcon=api" vertex="1" parent="fH06l1myDt46P4Em8P1J-35">
          <mxGeometry width="77.5" height="63.41" as="geometry" />
        </mxCell>
        <mxCell id="fH06l1myDt46P4Em8P1J-22" value="" style="shape=image;html=1;verticalAlign=top;verticalLabelPosition=bottom;labelBackgroundColor=#ffffff;imageAspect=0;aspect=fixed;image=https://cdn4.iconfinder.com/data/icons/logos-brands-5/24/auth0-128.png" vertex="1" parent="fH06l1myDt46P4Em8P1J-35">
          <mxGeometry x="273.75" y="2.710000000000008" width="58" height="58" as="geometry" />
        </mxCell>
        <mxCell id="fH06l1myDt46P4Em8P1J-26" value="" style="edgeStyle=orthogonalEdgeStyle;rounded=0;orthogonalLoop=1;jettySize=auto;html=1;" edge="1" parent="fH06l1myDt46P4Em8P1J-35" source="fH06l1myDt46P4Em8P1J-24" target="fH06l1myDt46P4Em8P1J-22">
          <mxGeometry relative="1" as="geometry" />
        </mxCell>
        <mxCell id="fH06l1myDt46P4Em8P1J-33" value="" style="edgeStyle=orthogonalEdgeStyle;rounded=0;orthogonalLoop=1;jettySize=auto;html=1;" edge="1" parent="fH06l1myDt46P4Em8P1J-35" source="fH06l1myDt46P4Em8P1J-24" target="fH06l1myDt46P4Em8P1J-6">
          <mxGeometry relative="1" as="geometry" />
        </mxCell>
        <mxCell id="fH06l1myDt46P4Em8P1J-24" value="" style="html=1;verticalLabelPosition=bottom;align=center;labelBackgroundColor=#ffffff;verticalAlign=top;strokeWidth=2;strokeColor=#0080F0;shadow=0;dashed=0;shape=mxgraph.ios7.icons.cloud;fillColor=none;" vertex="1" parent="fH06l1myDt46P4Em8P1J-35">
          <mxGeometry x="136.25" y="10.210000000000008" width="70" height="43" as="geometry" />
        </mxCell>
        <mxCell id="fH06l1myDt46P4Em8P1J-9" value="" style="edgeStyle=orthogonalEdgeStyle;rounded=0;orthogonalLoop=1;jettySize=auto;html=1;" edge="1" parent="fH06l1myDt46P4Em8P1J-55" source="fH06l1myDt46P4Em8P1J-7" target="fH06l1myDt46P4Em8P1J-6">
          <mxGeometry x="-71.25" y="-121" as="geometry" />
        </mxCell>
        <mxCell id="fH06l1myDt46P4Em8P1J-29" value="" style="outlineConnect=0;fontColor=#232F3E;gradientColor=#4D72F3;gradientDirection=north;fillColor=#3334B9;strokeColor=#ffffff;dashed=0;verticalLabelPosition=bottom;verticalAlign=top;align=center;html=1;fontSize=12;fontStyle=0;aspect=fixed;shape=mxgraph.aws4.resourceIcon;resIcon=mxgraph.aws4.documentdb_with_mongodb_compatibility;" vertex="1" parent="1">
          <mxGeometry x="40" y="202.7" width="78" height="78" as="geometry" />
        </mxCell>
        <mxCell id="fH06l1myDt46P4Em8P1J-81" value="" style="edgeStyle=orthogonalEdgeStyle;rounded=0;orthogonalLoop=1;jettySize=auto;html=1;" edge="1" parent="1" source="fH06l1myDt46P4Em8P1J-30" target="fH06l1myDt46P4Em8P1J-79">
          <mxGeometry relative="1" as="geometry" />
        </mxCell>
        <mxCell id="fH06l1myDt46P4Em8P1J-30" value="" style="html=1;verticalLabelPosition=bottom;align=center;labelBackgroundColor=#ffffff;verticalAlign=top;strokeWidth=2;strokeColor=#0080F0;shadow=0;dashed=0;shape=mxgraph.ios7.icons.cloud;fillColor=none;" vertex="1" parent="1">
          <mxGeometry x="185" y="220.21" width="70" height="43" as="geometry" />
        </mxCell>
        <mxCell id="fH06l1myDt46P4Em8P1J-31" value="" style="edgeStyle=orthogonalEdgeStyle;rounded=0;orthogonalLoop=1;jettySize=auto;html=1;" edge="1" parent="1" source="fH06l1myDt46P4Em8P1J-30" target="fH06l1myDt46P4Em8P1J-29">
          <mxGeometry x="150" y="210" as="geometry" />
        </mxCell>
        <mxCell id="fH06l1myDt46P4Em8P1J-80" value="" style="edgeStyle=orthogonalEdgeStyle;rounded=0;orthogonalLoop=1;jettySize=auto;html=1;" edge="1" parent="1" source="fH06l1myDt46P4Em8P1J-7" target="fH06l1myDt46P4Em8P1J-79">
          <mxGeometry relative="1" as="geometry" />
        </mxCell>
        <mxCell id="fH06l1myDt46P4Em8P1J-79" value="" style="html=1;dashed=0;whitespace=wrap;fillColor=#2875E2;strokeColor=#ffffff;points=[[0.005,0.63,0],[0.1,0.2,0],[0.9,0.2,0],[0.5,0,0],[0.995,0.63,0],[0.72,0.99,0],[0.5,1,0],[0.28,0.99,0]];shape=mxgraph.kubernetes.icon;prIcon=api" vertex="1" parent="1">
          <mxGeometry x="300" y="210" width="77.5" height="63.41" as="geometry" />
        </mxCell>
      </root>
    </mxGraphModel>
  </diagram>
</mxfile>
